<?xml version="1.0" encoding="UTF-8"?>
<svg xmlns="http://www.w3.org/2000/svg"
     xmlns:xlink="http://www.w3.org/1999/xlink"
     version="1.2"
     width="50mm" height="50mm" viewBox="0 0 50 50"
     stroke="none"
     fill="#000000"
     stroke-width="0.3"
     font-size="3.88"
>
<defs>
  <marker id="arrow" markerWidth="15" markerHeight="7" refX="5" refY="3.5" orient="auto" markerUnits="strokeWidth">
    <path d="M0,0 L15,3.5 L0,7 z" stroke="context-stroke" fill="context-stroke"/>
  </marker>
</defs>
<g fill="#000000" fill-opacity="0.000" id="img-0565bba2-1">
  <g transform="translate(25,25)">
    <path d="M-25,-25 L25,-25 25,25 -25,25  z" class="primitive"/>
  </g>
</g>
<g stroke-width="1.13" stroke="#D3D3D3" id="img-0565bba2-2">
</g>
<g stroke-width="1.13" stroke="#D3D3D3" id="img-0565bba2-3">
  <g transform="translate(39.72,37.1)">
    <path fill="none" d="M4.2,1 L-4.2,-1 " class="primitive"/>
  </g>
  <g transform="translate(32.77,40.74)">
    <path fill="none" d="M0.51,-3.15 L-0.51,3.15 " class="primitive"/>
  </g>
  <g transform="translate(29.31,30.35)">
    <path fill="none" d="M3.05,3.77 L-3.05,-3.77 " class="primitive"/>
  </g>
  <g transform="translate(20.64,19.62)">
    <path fill="none" d="M3.15,3.89 L-3.15,-3.89 " class="primitive"/>
  </g>
  <g transform="translate(10.21,12.8)">
    <path fill="none" d="M4.13,0.96 L-4.13,-0.96 " class="primitive"/>
  </g>
  <g transform="translate(17.1,9.18)">
    <path fill="none" d="M-0.52,3.08 L0.52,-3.08 " class="primitive"/>
  </g>
</g>
<g fill="#D3D3D3" id="img-0565bba2-4">
</g>
<g fill="#D3D3D3" id="img-0565bba2-5">
</g>
<g font-size="4" fill="#000000" id="img-0565bba2-6">
</g>
<g stroke-width="0" stroke="#000000" stroke-opacity="0.000" fill="#40E0D0" id="img-0565bba2-7">
  <g transform="translate(45.83,38.55)">
    <circle cx="0" cy="0" r="1.89" class="primitive"/>
  </g>
  <g transform="translate(33.6,35.65)">
    <circle cx="0" cy="0" r="1.89" class="primitive"/>
  </g>
  <g transform="translate(31.95,45.83)">
    <circle cx="0" cy="0" r="1.89" class="primitive"/>
  </g>
  <g transform="translate(25.02,25.05)">
    <circle cx="0" cy="0" r="1.89" class="primitive"/>
  </g>
  <g transform="translate(16.25,14.2)">
    <circle cx="0" cy="0" r="1.89" class="primitive"/>
  </g>
  <g transform="translate(4.17,11.4)">
    <circle cx="0" cy="0" r="1.89" class="primitive"/>
  </g>
  <g transform="translate(17.95,4.17)">
    <circle cx="0" cy="0" r="1.89" class="primitive"/>
  </g>
</g>
<g font-family="Helvetica" font-size="4" fill="#000000" id="img-0565bba2-8">
</g>
<g font-family="Helvetica" font-size="4" fill="#000000" id="img-0565bba2-9">
  <g transform="translate(25,0)">
    <g class="primitive">
      <text text-anchor="middle" dy="0.35em"></text>
    </g>
  </g>
</g>
</svg>
